<svg width="46" height="32" viewBox="0 0 46 32" fill="none" xmlns="http://www.w3.org/2000/svg">
<path d="M38.5908 18.2494C41.3635 19.0956 43.2744 24.1295 45.5981 24.9551V31.068H0.599495V9.67202C2.01979 10.0476 3.03138 0.0786119 6.02414 1.0175C9.0169 1.95639 11.2195 12.68 13.6036 8.07941C15.9876 3.47887 16.4944 5.90632 19.0306 4.96744C21.5669 4.02855 22.6779 15.2759 25.0802 14.9165C27.4824 14.5571 28.1236 23.9119 30.5751 23.0442C33.5458 21.9928 33.2873 21.4039 34.6082 20.04C35.9291 18.6762 37.113 17.7984 38.5908 18.2494Z" fill="url(#paint0_linear_201_19271)"/>
<path d="M45.0977 24.9551C42.8254 24.1295 40.957 19.0956 38.2458 18.2494C36.8008 17.7984 35.6432 18.6762 34.3516 20.04C33.06 21.4039 33.3128 21.9928 30.4081 23.0442C28.011 23.9119 27.3839 14.5571 25.035 14.9165C22.6861 15.2759 21.5997 4.02855 19.1198 4.96744C16.6398 5.90632 16.1443 3.47887 13.8131 8.07941C11.482 12.68 9.32825 1.95639 6.40191 1.0175C3.47557 0.0786118 2.48643 10.0476 1.09766 9.67202" stroke="#F86D6D" stroke-linecap="round" stroke-linejoin="round"/>
<defs>
<linearGradient id="paint0_linear_201_19271" x1="23.0988" y1="0.955078" x2="23.0988" y2="31.0712" gradientUnits="userSpaceOnUse">
<stop stop-color="#FFBABA"/>
<stop offset="1" stop-color="#F86D6D" stop-opacity="0"/>
<stop offset="1" stop-color="#FFBABA" stop-opacity="0"/>
</linearGradient>
</defs>
</svg>
