<svg width="46" height="31" viewBox="0 0 46 31" fill="none" xmlns="http://www.w3.org/2000/svg">
<path d="M1.22461 8.3485L0.599609 8.85904V31H45.5996V24.8601C44.3496 25.1901 43.0996 23.0275 41.8496 21.0462C40.5996 19.065 39.3496 17.2651 38.0996 14.2887C36.8496 11.3123 35.5996 7.15931 34.3496 8.82388C33.0996 10.4884 31.8496 17.9705 30.5996 19.5508C29.3496 21.1311 28.0996 16.8096 26.8496 13.0669C25.5996 9.3241 24.3496 6.16007 23.0996 4.27769C21.8496 2.3953 20.5996 1.79457 19.3496 1.33176C18.0996 0.868946 16.8496 0.544063 15.5996 2.83739C14.3496 5.13071 13.0996 10.0422 11.8496 11.0395C10.5996 12.0367 9.34961 9.1196 8.09961 7.59326C6.84961 6.06693 5.59961 5.93136 4.34961 6.37411C3.09961 6.81687 1.84961 7.83795 1.22461 8.3485Z" fill="url(#paint0_linear_201_19261)"/>
<path d="M1.07812 8.85904L1.69003 8.3485C2.30194 7.83795 3.52576 6.81687 4.74958 6.37411C5.97339 5.93136 7.19721 6.06693 8.42103 7.59326C9.64484 9.1196 10.8687 12.0367 12.0925 11.0395C13.3163 10.0422 14.5401 5.13071 15.7639 2.83739C16.9877 0.544063 18.2116 0.868946 19.4354 1.33176C20.6592 1.79456 21.883 2.3953 23.1068 4.27769C24.3306 6.16007 25.5545 9.3241 26.7783 13.0669C28.0021 16.8096 29.2259 21.1311 30.4497 19.5508C31.6735 17.9705 32.8974 10.4884 34.1212 8.82388C35.345 7.15931 36.5688 11.3123 37.7926 14.2887C39.0164 17.2651 40.2403 19.065 41.4641 21.0462C42.6879 23.0275 43.9117 25.1901 45.1355 24.8601" stroke="#5185F7" stroke-linecap="round" stroke-linejoin="round"/>
<defs>
<linearGradient id="paint0_linear_201_19261" x1="23.0996" y1="1" x2="23.0996" y2="32.6004" gradientUnits="userSpaceOnUse">
<stop stop-color="#C7D6F9"/>
<stop offset="1" stop-color="#C7D6F9" stop-opacity="0"/>
</linearGradient>
</defs>
</svg>
