<svg width="46" height="31" viewBox="0 0 46 31" fill="none" xmlns="http://www.w3.org/2000/svg">
<path d="M44.9938 21.9314L45.583 25V30.955H0.59943V10.9276C1.77787 13.2255 1.98093 13.1058 3.15937 11.3573C4.3378 9.60866 5.51624 4.71329 6.69467 2.45817C7.8731 0.203052 9.05154 0.588178 10.23 3.44329C11.4084 6.2984 12.5868 11.6235 13.7653 12.042C14.9437 12.4606 16.1221 7.9726 17.3006 6.23216C18.479 4.49173 19.6574 5.49885 20.8359 8.4315C22.0143 11.3642 23.1928 16.2223 24.3712 16.4106C25.5496 16.5988 26.7281 12.117 27.9065 12.2727C29.0849 12.4284 30.2634 17.2216 31.4418 16.7753C32.6202 16.329 33.7987 10.6433 34.9771 7.19242C36.1555 3.74157 37.334 2.5256 38.5124 2.79739C39.6908 3.06918 40.8693 4.82873 42.0477 8.77712C43.2261 12.7255 44.4046 18.8628 44.9938 21.9314Z" fill="url(#paint0_linear_201_19266)"/>
<path d="M45.591 24.9077C45.642 25.1791 45.4633 25.4404 45.1919 25.4914C44.9205 25.5424 44.6592 25.3637 44.6082 25.0923L45.591 24.9077ZM44.5233 21.9314L45.0147 21.8391H45.0147L44.5233 21.9314ZM0.652687 11.1518C0.52887 10.9049 0.628593 10.6045 0.875423 10.4807C1.12225 10.3568 1.42272 10.4566 1.54653 10.7034L0.652687 11.1518ZM44.6082 25.0923L44.0319 22.0237L45.0147 21.8391L45.591 24.9077L44.6082 25.0923ZM44.0319 22.0237C43.454 18.9469 42.3059 12.8369 41.1616 8.91724L42.1216 8.637C43.2826 12.6142 44.4399 18.7786 45.0147 21.8391L44.0319 22.0237ZM41.1616 8.91724C40.5903 6.96032 40.0281 5.57935 39.4831 4.66443C38.9297 3.73565 38.4456 3.37288 38.0689 3.28404L38.2984 2.31073C39.0743 2.49369 39.7428 3.14658 40.3422 4.15262C40.9498 5.17253 41.5402 6.64553 42.1216 8.637L41.1616 8.91724ZM38.0689 3.28404C37.7466 3.20805 37.3484 3.29881 36.8409 3.91635C36.3232 4.54635 35.7701 5.64347 35.1998 7.35083L34.2514 7.03401C34.8337 5.29052 35.4333 4.05422 36.0683 3.28148C36.7135 2.49626 37.468 2.11494 38.2984 2.31073L38.0689 3.28404ZM35.1998 7.35083C34.6239 9.07512 34.0643 11.3045 33.4753 13.2551C33.186 14.213 32.8906 15.0981 32.5892 15.7777C32.4387 16.1169 32.2794 16.422 32.1089 16.6645C31.947 16.8948 31.732 17.1317 31.4481 17.2416L31.0871 16.309C31.0837 16.3103 31.103 16.3033 31.1432 16.2659C31.1828 16.2291 31.2325 16.1723 31.2908 16.0894C31.4084 15.9221 31.5373 15.6828 31.675 15.3723C31.95 14.7524 32.2309 13.9168 32.5179 12.966C33.0816 11.0995 33.6746 8.76058 34.2514 7.03401L35.1998 7.35083ZM31.4481 17.2416C31.122 17.3678 30.8135 17.29 30.5733 17.1422C30.3493 17.0044 30.1601 16.7939 30.0013 16.5796C29.682 16.1485 29.3748 15.5448 29.0907 14.9719C28.7961 14.378 28.5214 13.8069 28.2493 13.3684C28.1138 13.1501 27.9927 12.988 27.8871 12.8815C27.7749 12.7686 27.7273 12.7662 27.7427 12.7682L27.8765 11.7772C28.18 11.8182 28.4206 11.9997 28.5966 12.1769C28.7791 12.3607 28.9463 12.5951 29.0989 12.841C29.4031 13.3311 29.7048 13.9596 29.9865 14.5276C30.2787 15.1167 30.5478 15.6373 30.8049 15.9844C30.9343 16.1591 31.0332 16.251 31.0974 16.2905C31.1454 16.3201 31.125 16.2944 31.0871 16.309L31.4481 17.2416ZM27.7427 12.7682C27.7746 12.7726 27.7601 12.7519 27.6759 12.8146C27.5901 12.8785 27.4805 12.9943 27.3491 13.1746C27.0859 13.5357 26.8153 14.0404 26.5215 14.5897C26.2388 15.1182 25.9327 15.6917 25.6187 16.118C25.4615 16.3315 25.2816 16.5375 25.0769 16.6855C24.8693 16.8357 24.592 16.9564 24.271 16.904L24.4322 15.9171C24.3993 15.9117 24.4103 15.9336 24.4908 15.8753C24.5743 15.8149 24.6825 15.7029 24.8135 15.525C25.0758 15.1689 25.3461 14.667 25.6397 14.118C25.9222 13.5898 26.2279 13.0151 26.541 12.5855C26.6978 12.3705 26.8764 12.1631 27.0787 12.0125C27.2828 11.8606 27.5564 11.734 27.8765 11.7772L27.7427 12.7682ZM24.271 16.904C23.9673 16.8544 23.7286 16.6651 23.5514 16.4725C23.3684 16.2737 23.2018 16.0176 23.0482 15.7365C22.7405 15.1729 22.4417 14.4258 22.152 13.6192C21.5561 11.9601 21.0062 10.0848 20.4282 8.61441L21.3589 8.2486C21.9337 9.71082 22.5364 11.731 23.0932 13.2812C23.3798 14.0792 23.6573 14.7653 23.9259 15.2572C24.0606 15.5038 24.1821 15.6811 24.2873 15.7954C24.3983 15.916 24.4477 15.9196 24.4322 15.9171L24.271 16.904ZM20.4282 8.61441C20.1459 7.89604 19.8693 7.31084 19.6005 6.8634C19.3275 6.40903 19.083 6.13174 18.8791 5.98992C18.6948 5.86171 18.5752 5.86126 18.4706 5.8992C18.3294 5.9504 18.116 6.11034 17.8524 6.50825L17.0187 5.95608C17.3315 5.48377 17.6945 5.11694 18.1296 4.95912C18.6013 4.78805 19.0581 4.89633 19.4501 5.16893C19.8225 5.42792 20.1543 5.8435 20.4577 6.34839C20.7652 6.8602 21.065 7.50064 21.3589 8.2486L20.4282 8.61441ZM17.8524 6.50825C17.5906 6.90364 17.3172 7.47472 17.0292 8.1334C16.7531 8.76482 16.4478 9.5149 16.1629 10.151C15.8744 10.7954 15.5675 11.4162 15.2439 11.8532C15.0829 12.0705 14.8922 12.2782 14.6662 12.4132C14.4244 12.5577 14.1232 12.6269 13.8069 12.512L14.1482 11.5721C14.1201 11.5618 14.1071 11.5824 14.1534 11.5547C14.2156 11.5176 14.3131 11.4298 14.4403 11.258C14.693 10.9168 14.9624 10.3852 15.2502 9.7424C15.5417 9.09131 15.8128 8.41922 16.113 7.73273C16.4013 7.07349 16.7042 6.4309 17.0187 5.95608L17.8524 6.50825ZM13.8069 12.512C13.5269 12.4103 13.3107 12.189 13.146 11.9704C12.9737 11.7417 12.8131 11.4551 12.662 11.1391C12.3594 10.5062 12.0631 9.68674 11.7739 8.81355C11.1853 7.03587 10.6249 5.0397 10.0559 3.63047L10.9832 3.25611C11.5669 4.70198 12.1592 6.79591 12.7232 8.4992C13.0104 9.36649 13.2905 10.1353 13.5642 10.7077C13.7012 10.9944 13.8288 11.2148 13.9447 11.3686C14.002 11.4448 14.0508 11.4969 14.0897 11.5307C14.1289 11.5648 14.1488 11.5723 14.1482 11.5721L13.8069 12.512ZM10.0559 3.63047C9.77524 2.9352 9.50445 2.41614 9.24857 2.05887C8.986 1.69223 8.77966 1.55276 8.64814 1.51368C8.55652 1.48645 8.43656 1.48715 8.24321 1.64578C8.03262 1.81854 7.78222 2.14688 7.50679 2.68574L6.61636 2.23061C6.91727 1.64191 7.24319 1.17272 7.60894 0.872658C7.99192 0.558464 8.4483 0.41106 8.93301 0.555111C9.37782 0.687304 9.74782 1.03851 10.0616 1.47661C10.382 1.92407 10.6876 2.52382 10.9832 3.25611L10.0559 3.63047ZM7.50679 2.68574C6.95228 3.7706 6.39043 5.50997 5.80679 7.25616C5.51871 8.11803 5.22709 8.9749 4.934 9.72763C4.64343 10.4739 4.33977 11.1489 4.02103 11.6324L3.18611 11.0821C3.44371 10.6913 3.71638 10.0987 4.00215 9.36479C4.28539 8.63738 4.5701 7.8016 4.85836 6.93916C5.42738 5.23674 6.0182 3.40086 6.61636 2.23061L7.50679 2.68574ZM4.02103 11.6324C3.73771 12.0622 3.48846 12.4309 3.26009 12.6851C3.05227 12.9164 2.72989 13.2065 2.2946 13.1566C1.88656 13.1098 1.60536 12.7831 1.40509 12.4963C1.18306 12.1783 0.940037 11.7246 0.652687 11.1518L1.54653 10.7034C1.83551 11.2795 2.04957 11.6725 2.22499 11.9238C2.42218 12.2062 2.47879 12.1712 2.40858 12.1631C2.31111 12.1519 2.32656 12.2279 2.51619 12.0168C2.68527 11.8286 2.8931 11.5266 3.18611 11.0821L4.02103 11.6324Z" fill="#35C75A"/>
<defs>
<linearGradient id="paint0_linear_201_19266" x1="23.0912" y1="1" x2="23.0912" y2="30.955" gradientUnits="userSpaceOnUse">
<stop stop-color="#96E4AA"/>
<stop offset="1" stop-color="#96E4AA" stop-opacity="0"/>
</linearGradient>
</defs>
</svg>
